<svg width="280" height="280" viewBox="0 0 280 280" fill="none" xmlns="http://www.w3.org/2000/svg">
<path d="M140 10C68.2 10 10 68.2 10 140C10 211.8 68.2 270 140 270C211.8 270 270 211.8 270 140C270 68.2 211.8 10 140 10ZM102.5 104.28C144.54 175.17 137.93 222.02 137.93 222.02C29.24 193.59 73.32 57.66 73.32 57.66C86.59 64.3 97.41 69.03 103.09 71.43C107.56 73.32 111.97 75.42 116.22 77.78C145.04 93.8 158.13 112.17 158.13 112.17C140 134.64 138.3 157.36 138.3 157.36C113.19 111.15 100.03 100.02 100.03 100.02L102.5 104.28ZM165.83 222.02C165.83 222.02 188.64 184.47 183.96 139.84C183.96 139.84 176.81 187.81 154.56 217.22C154.56 217.22 126.27 168.99 165.55 114.51C167.71 111.52 170.1 108.7 172.59 105.97C176.32 101.89 182.84 94.48 188.35 86.95C188.35 86.95 262.76 176.22 169.6 220.05L165.83 222.02Z" stroke="#1D1D1B" stroke-width="5" stroke-miterlimit="10"/>
</svg>
