<svg width="280" height="280" viewBox="0 0 280 280" fill="none" xmlns="http://www.w3.org/2000/svg">
<path d="M163.12 73.72C160.22 78.49 156.31 82.4 151.74 85.1C147.17 87.8 142.07 89.21 136.9 89.21C131.73 89.21 126.63 87.8 122.06 85.1C117.49 82.4 113.58 78.49 110.68 73.72C93.2501 85.69 81.3701 123.79 81.3701 123.79C81.3701 123.79 106.23 145.61 136.9 145.61C167.57 145.61 192.45 125.15 192.45 125.15C192.45 125.15 180.57 85.75 163.14 73.73L163.12 73.72Z" fill="white" stroke="black" stroke-width="2.51" stroke-miterlimit="10"/>
<path d="M136.87 80.84C154.36 80.84 168.54 65.04 168.54 45.54C168.54 26.04 154.36 10.24 136.87 10.24C119.38 10.24 105.2 26.04 105.2 45.54C105.2 65.04 119.38 80.84 136.87 80.84Z" fill="white" stroke="black" stroke-width="2.51" stroke-miterlimit="10"/>
<path d="M239.7 146.65C236.8 151.42 232.89 155.33 228.32 158.03C223.75 160.73 218.65 162.14 213.48 162.14C208.31 162.14 203.21 160.73 198.64 158.03C194.07 155.33 190.16 151.42 187.26 146.65C169.83 158.62 157.95 177.97 157.95 177.97C157.95 177.97 182.81 218.53 213.48 218.53C244.15 218.53 269 177.97 269 177.97C269 177.97 257.16 158.63 239.72 146.65H239.7Z" fill="white" stroke="black" stroke-width="2.51" stroke-miterlimit="10"/>
<path d="M213.48 154.89C230.97 154.89 245.15 139.09 245.15 119.59C245.15 100.09 230.97 84.29 213.48 84.29C195.99 84.29 181.81 100.09 181.81 119.59C181.81 139.09 195.99 154.89 213.48 154.89Z" fill="white" stroke="black" stroke-width="2.51" stroke-miterlimit="10"/>
<path d="M90.7402 141.89C87.8402 146.66 83.9302 150.57 79.3602 153.27C74.7902 155.97 69.6902 157.38 64.5202 157.38C59.3502 157.38 54.2502 155.97 49.6802 153.27C45.1102 150.57 41.2002 146.66 38.3002 141.89C20.8702 153.86 8.99023 173.21 8.99023 173.21C8.99023 173.21 33.8502 213.77 64.5202 213.77C95.1902 213.77 120.04 173.21 120.04 173.21C120.04 173.21 108.2 153.87 90.7602 141.89H90.7402Z" fill="white" stroke="black" stroke-width="2.51" stroke-miterlimit="10"/>
<path d="M64.5196 150.12C82.0096 150.12 96.1896 134.32 96.1896 114.82C96.1896 95.32 82.0096 79.52 64.5196 79.52C47.0296 79.52 32.8496 95.32 32.8496 114.82C32.8496 134.32 47.0296 150.12 64.5196 150.12Z" fill="white" stroke="black" stroke-width="2.51" stroke-miterlimit="10"/>
<path d="M136.87 205.78C154.36 205.78 168.54 189.98 168.54 170.48C168.54 150.98 154.36 135.18 136.87 135.18C119.38 135.18 105.2 150.98 105.2 170.48C105.2 189.98 119.38 205.78 136.87 205.78Z" fill="white" stroke="black" stroke-width="2.51" stroke-miterlimit="10"/>
<path d="M163.12 198.32C160.22 203.09 156.31 207 151.74 209.7C147.17 212.4 142.07 213.81 136.9 213.81C131.73 213.81 126.63 212.4 122.06 209.7C117.49 207 113.58 203.09 110.68 198.32C93.2501 210.29 81.3701 240.05 81.3701 240.05C81.3701 240.05 106.22 270.24 136.89 270.24C167.56 270.24 192.45 240.05 192.45 240.05C192.45 240.05 180.57 210.29 163.14 198.32H163.12Z" fill="white" stroke="black" stroke-width="2.51" stroke-miterlimit="10"/>
</svg>
