<svg width="97" height="72" viewBox="0 0 97 72" fill="none" xmlns="http://www.w3.org/2000/svg">
<path d="M12.9601 33.0919H1.23121C0.551232 33.0919 0 33.641 0 34.3183V69.367C0 70.0443 0.551232 70.5933 1.23121 70.5933H12.9601C13.6401 70.5933 14.1913 70.0443 14.1913 69.367V34.3183C14.1913 33.641 13.6401 33.0919 12.9601 33.0919Z" fill="#1D1D1B"/>
<path d="M19.1593 36.3192C19.1593 36.0395 19.2889 35.7598 19.5481 35.6092C21.8809 34.1462 34.2362 25.8627 39.7011 9.61856C39.7011 9.61856 41.7747 5.6382 46.3107 7.70368C50.8468 9.76917 43.6971 31.6073 43.6971 31.6073H63.0725C63.0725 31.6073 67.7597 32.2958 67.7597 36.9647C67.7597 41.6335 64.5197 41.7626 64.5197 41.7626C64.5197 41.7626 67.5869 42.1284 67.5869 47.3566C67.5869 52.5849 63.2885 51.8749 63.2885 51.8749C63.2885 51.8749 66.7445 53.3164 66.7445 57.4474C66.7445 61.5784 63.6341 62.0947 63.6341 62.0947C63.6341 62.0947 66.3557 62.9769 66.3557 67.1724C66.3557 70.6794 64.7573 71.5185 63.0941 71.6691C61.7765 71.7767 41.8395 71.6691 34.085 71.6261C31.277 71.6261 28.5338 71.1097 25.9202 70.0985C24.2137 69.4315 22.1617 68.5063 19.8721 67.2154C19.4401 66.9787 19.1809 66.5054 19.1809 66.0105V36.3838L19.1593 36.3192Z" fill="#1D1D1B"/>
<path d="M86.6383 69.5606V21.4305C86.6383 21.4305 97.46 21.9039 96.9848 21.4305C96.5095 20.9572 81.6702 0.00115967 81.6702 0.00115967L81.7998 70.5933H85.6015C86.1631 70.5933 86.6383 70.1415 86.6383 69.5606Z" fill="#1D1D1B"/>
<path d="M76.7021 69.5606V21.4305C76.7021 21.4305 65.8805 21.9039 66.3557 21.4305C66.8309 20.9572 81.6702 0.00115967 81.6702 0.00115967L81.7998 70.5933H77.739C77.1774 70.5933 76.7021 70.1415 76.7021 69.5606Z" fill="#1D1D1B"/>
</svg>
