<svg width="70" height="71" viewBox="0 0 70 71" fill="none" xmlns="http://www.w3.org/2000/svg">
<path d="M43.1216 54.7473L54.1449 43.724L68.5014 58.3415C68.5014 58.3415 72.477 63.0801 67.4774 68.0797C62.4777 73.0794 58.2411 69.3648 58.2411 69.3648L43.1216 54.7473Z" fill="black"/>
<path d="M24.2475 46.4949C36.5344 46.4949 46.4949 36.5344 46.4949 24.2475C46.4949 11.9605 36.5344 2 24.2475 2C11.9605 2 2 11.9605 2 24.2475C2 36.5344 11.9605 46.4949 24.2475 46.4949Z" stroke="black" stroke-width="2.5" stroke-miterlimit="10"/>
<path d="M18.9264 10.3528C18.9264 10.3528 28.8454 5.53389 36.9372 16.3163" stroke="black" stroke-width="1.5" stroke-linecap="round" stroke-linejoin="round"/>
<path d="M39.7485 40.2102L46.495 47.2378" stroke="black" stroke-width="3" stroke-miterlimit="10"/>
</svg>
