<svg width="260" height="260" viewBox="0 0 260 260" fill="none" xmlns="http://www.w3.org/2000/svg">
<mask id="mask0_648_1853" style="mask-type:luminance" maskUnits="userSpaceOnUse" x="0" y="0" width="260" height="260">
<path d="M260 0H0V260H260V0Z" fill="white"/>
</mask>
<g mask="url(#mask0_648_1853)">
<path d="M2.87988 258.06C2.87988 258.06 37.0099 132.7 117.45 130.04C175.99 128.1 215.85 49.7297 215.85 49.7297H243.94C243.94 49.7297 288.48 114.86 217.25 154.62C122.66 207.45 143.71 258.04 143.71 258.04L2.87988 258.06Z" fill="white" stroke="black" stroke-width="5.69" stroke-miterlimit="10"/>
<path d="M214.68 87.5497C216.91 87.5497 218.72 86.0197 218.72 84.1297C218.72 82.2397 216.91 80.7097 214.68 80.7097C212.45 80.7097 210.64 82.2397 210.64 84.1297C210.64 86.0197 212.45 87.5497 214.68 87.5497Z" fill="black"/>
<path d="M224.97 98.1198C227.2 98.1198 229.01 96.5898 229.01 94.6998C229.01 92.8098 227.2 91.2798 224.97 91.2798C222.74 91.2798 220.93 92.8098 220.93 94.6998C220.93 96.5898 222.74 98.1198 224.97 98.1198Z" fill="black"/>
<path d="M108.86 160.73C111.09 160.73 112.9 159.2 112.9 157.31C112.9 155.42 111.09 153.89 108.86 153.89C106.63 153.89 104.82 155.42 104.82 157.31C104.82 159.2 106.63 160.73 108.86 160.73Z" fill="black"/>
<path d="M87.25 170.14C89.48 170.14 91.29 168.61 91.29 166.72C91.29 164.83 89.48 163.3 87.25 163.3C85.02 163.3 83.21 164.83 83.21 166.72C83.21 168.61 85.02 170.14 87.25 170.14Z" fill="black"/>
<path d="M111.979 147.13C114.209 147.13 116.019 145.6 116.019 143.71C116.019 141.82 114.209 140.29 111.979 140.29C109.749 140.29 107.939 141.82 107.939 143.71C107.939 145.6 109.749 147.13 111.979 147.13Z" fill="black"/>
<path d="M118.1 235.88C120.33 235.88 122.14 234.35 122.14 232.46C122.14 230.57 120.33 229.04 118.1 229.04C115.87 229.04 114.06 230.57 114.06 232.46C114.06 234.35 115.87 235.88 118.1 235.88Z" fill="black"/>
<path d="M96.5 235.88C98.73 235.88 100.54 234.35 100.54 232.46C100.54 230.57 98.73 229.04 96.5 229.04C94.27 229.04 92.46 230.57 92.46 232.46C92.46 234.35 94.27 235.88 96.5 235.88Z" fill="black"/>
<path d="M121.229 218.87C123.459 218.87 125.269 217.34 125.269 215.45C125.269 213.56 123.459 212.03 121.229 212.03C118.999 212.03 117.189 213.56 117.189 215.45C117.189 217.34 118.999 218.87 121.229 218.87Z" fill="black"/>
<path d="M40.7197 235.8C42.9497 235.8 44.7597 234.27 44.7597 232.38C44.7597 230.49 42.9497 228.96 40.7197 228.96C38.4897 228.96 36.6797 230.49 36.6797 232.38C36.6797 234.27 38.4897 235.8 40.7197 235.8Z" fill="black"/>
<path d="M65.4501 218.78C67.6801 218.78 69.4902 217.25 69.4902 215.36C69.4902 213.47 67.6801 211.94 65.4501 211.94C63.2201 211.94 61.4102 213.47 61.4102 215.36C61.4102 217.25 63.2201 218.78 65.4501 218.78Z" fill="black"/>
<path d="M190.439 144.98C192.669 144.98 194.479 143.45 194.479 141.56C194.479 139.67 192.669 138.14 190.439 138.14C188.209 138.14 186.399 139.67 186.399 141.56C186.399 143.45 188.209 144.98 190.439 144.98Z" fill="black"/>
<path d="M215.17 127.96C217.4 127.96 219.21 126.43 219.21 124.54C219.21 122.65 217.4 121.12 215.17 121.12C212.94 121.12 211.13 122.65 211.13 124.54C211.13 126.43 212.94 127.96 215.17 127.96Z" fill="black"/>
<path d="M172.73 16.1598C173.33 23.7998 168.62 30.2898 159.58 30.7998C155.28 30.9798 151.08 29.7198 147.87 27.2998C144.66 24.8798 142.7 21.4898 142.42 17.8598C142.14 14.2298 143.55 10.6498 146.35 7.88979C149.16 5.12979 153.13 3.41979 157.41 3.10979C166.45 2.59979 172.12 8.50979 172.72 16.1598H172.73Z" fill="white" stroke="black" stroke-width="4.74" stroke-miterlimit="10"/>
<path d="M198.479 43.6998C198.929 41.4698 197.169 39.3598 194.539 38.9698C191.909 38.5898 189.41 40.0798 188.96 42.2998L170.1 134.66C169.65 136.88 171.409 139 174.039 139.38C176.669 139.76 179.169 138.27 179.619 136.05L198.479 43.6898V43.6998Z" fill="black"/>
<path d="M159.859 80.3099L123.479 78.0399C123.479 78.0399 131.13 28.6099 140.49 30.4099C140.49 30.4099 167.699 28.8799 166.789 35.5899C165.879 42.2899 165.079 52.2399 169.969 54.6099C174.859 56.9799 195.319 60.1199 195.829 63.4099C196.34 66.6999 198.839 73.4999 191.429 73.9199C186.559 74.1899 171.979 73.4299 161.809 71.5899C156.529 70.6399 152.449 69.3999 151.509 67.8799C148.739 63.3999 146.619 61.1999 148.449 49.5099" fill="white"/>
<path d="M159.859 80.3099L123.479 78.0399C123.479 78.0399 131.13 28.6099 140.49 30.4099C140.49 30.4099 167.699 28.8799 166.789 35.5899C165.879 42.2899 165.079 52.2399 169.969 54.6099C174.859 56.9799 195.319 60.1199 195.829 63.4099C196.339 66.6999 198.839 73.4999 191.429 73.9199C186.559 74.1899 171.979 73.4299 161.809 71.5899C156.529 70.6399 152.449 69.3999 151.509 67.8799C148.739 63.3999 146.619 61.1999 148.449 49.5099" stroke="black" stroke-width="4.74" stroke-miterlimit="10"/>
<path d="M124.65 79.4498C124.65 79.4498 111.05 141.48 126.88 142C142.71 142.52 142.67 97.1298 142.67 97.1298C142.67 97.1298 161.31 110.24 161.79 114.75C162.27 119.26 162.36 140.44 172.67 140.51C182.98 140.58 183.53 129.1 183.53 129.1C183.53 129.1 182.64 104.52 175.26 98.5398C167.88 92.5698 158.29 81.6598 158.29 81.6598L161.95 73.0198" fill="white"/>
<path d="M124.65 79.4498C124.65 79.4498 111.05 141.48 126.88 142C142.71 142.52 142.67 97.1298 142.67 97.1298C142.67 97.1298 161.31 110.24 161.79 114.75C162.27 119.26 162.36 140.44 172.67 140.51C182.98 140.58 183.53 129.1 183.53 129.1C183.53 129.1 182.64 104.52 175.26 98.5398C167.88 92.5698 158.29 81.6598 158.29 81.6598L161.95 73.0198" stroke="black" stroke-width="4.74" stroke-miterlimit="10"/>
<path d="M131.64 29.7998C131.64 29.7998 117.93 21.2998 109.99 29.9098C102.05 38.5198 96.1699 76.6998 96.1699 76.6998L119.42 80.4098L131.63 29.7898L131.64 29.7998Z" fill="white" stroke="black" stroke-width="4.74" stroke-miterlimit="10"/>
<path d="M106.97 34.7097L129.55 38.4497" stroke="black" stroke-width="4.74" stroke-miterlimit="10"/>
<path d="M123.52 78.0398L158.86 80.3698" stroke="black" stroke-width="4.74" stroke-miterlimit="10"/>
</g>
</svg>
