<svg width="95" height="66" viewBox="0 0 95 66" fill="none" xmlns="http://www.w3.org/2000/svg">
<g clip-path="url(#clip0_501_209)">
<path d="M21.3471 44.5171H8.07485V33.1101C8.07485 33.1101 0 33.2471 0 26.0435C0 18.8399 7.95433 19.1141 7.95433 19.1141V7.76799H18.2136C18.2136 7.76799 18.7861 -0.0143433 26.0324 -0.0143433C33.2786 -0.0143433 33.7908 7.57 33.7908 7.57H44.5623V20.9873C44.5623 20.9873 36.2314 20.0126 36.2314 26.2415C36.2314 32.4704 44.5623 31.4957 44.5623 31.4957V44.5171H32.1186C32.1186 44.5171 32.7513 36.4301 26.2885 36.552C20.9102 36.6433 21.3471 44.5171 21.3471 44.5171Z" fill="#1D1D1B"/>
<path d="M80.4924 54.5384L72.1915 65.0164L63.3785 57.8889C63.3785 57.8889 58.4372 64.3463 52.8782 59.8535C47.3192 55.3608 52.4865 49.2537 52.4865 49.2537L43.7337 42.172L50.1514 34.0698C50.1514 34.0698 44.502 28.7547 49.0366 23.0436C53.5712 17.3325 59.7328 21.6577 59.7328 21.6577L66.4668 13.1595L76.8316 21.5511C76.8316 21.5511 70.7152 27.5363 75.6716 31.4046C80.628 35.2729 84.9366 28.115 84.9366 28.115L95 36.2629L87.2264 46.0707C87.2264 46.0707 81.2004 40.5729 77.4191 45.69C73.6378 50.8072 80.4924 54.5689 80.4924 54.5689V54.5384Z" fill="#1D1D1B"/>
</g>
<defs>
<clipPath id="clip0_501_209">
<rect width="95" height="65" fill="white" transform="translate(0 0.00115967)"/>
</clipPath>
</defs>
</svg>
