<svg width="100" height="65" viewBox="0 0 100 65" fill="none" xmlns="http://www.w3.org/2000/svg">
<g clip-path="url(#clip0_501_184)">
<path d="M69.0485 18.7045V1.40674H1.39925V50.2079H5.52239" stroke="black" stroke-width="1.5" stroke-miterlimit="10"/>
<path d="M2.83582 64.0012H22.6119C22.6119 64.0012 20 56.711 12.7239 56.711C5.44776 56.711 2.83582 64.0012 2.83582 64.0012Z" fill="black"/>
<path d="M12.7239 54.687C16.1447 54.687 18.9179 51.9013 18.9179 48.465C18.9179 45.0287 16.1447 42.243 12.7239 42.243C9.30301 42.243 6.52985 45.0287 6.52985 48.465C6.52985 51.9013 9.30301 54.687 12.7239 54.687Z" fill="black"/>
<path d="M25.3358 64.0012H45.1119C45.1119 64.0012 42.5 56.711 35.2239 56.711C27.9478 56.711 25.3358 64.0012 25.3358 64.0012Z" fill="black"/>
<path d="M35.2239 54.687C38.6447 54.687 41.4179 51.9013 41.4179 48.465C41.4179 45.0287 38.6447 42.243 35.2239 42.243C31.803 42.243 29.0299 45.0287 29.0299 48.465C29.0299 51.9013 31.803 54.687 35.2239 54.687Z" fill="black"/>
<path d="M45.8209 64.0012H65.597C65.597 64.0012 62.9851 56.711 55.709 56.711C48.4328 56.711 45.8209 64.0012 45.8209 64.0012Z" fill="black"/>
<path d="M55.709 54.687C59.1298 54.687 61.903 51.9013 61.903 48.465C61.903 45.0287 59.1298 42.243 55.709 42.243C52.2881 42.243 49.5149 45.0287 49.5149 48.465C49.5149 51.9013 52.2881 54.687 55.709 54.687Z" fill="black"/>
<path d="M67.5187 32.629C70.9395 32.629 73.7127 29.8433 73.7127 26.407C73.7127 22.9707 70.9395 20.1851 67.5187 20.1851C64.0978 20.1851 61.3246 22.9707 61.3246 26.407C61.3246 29.8433 64.0978 32.629 67.5187 32.629Z" fill="black"/>
<path d="M77.2948 47.9777C77.2948 47.9777 77.6493 34.3344 66.6978 34.3344C66.6978 34.3344 60.4851 34.0908 57.7425 40.6688C57.7425 40.6688 63.4328 41.9245 63.694 47.959H77.2948V47.9777Z" fill="black"/>
<path d="M77.8545 29.443L86.903 22.7525H92.2388C93.5261 22.7525 94.8134 22.3965 95.8582 21.6656C97.6679 20.4099 100 17.9174 100 13.4196C100 8.9218 97.4813 5.99823 95.5784 4.424C94.4403 3.48695 92.9851 3.01843 91.5112 3.01843H80.2985C78.7687 3.01843 77.2388 3.52444 76.0821 4.53644C74.4403 5.99823 72.6119 8.73439 72.6119 13.6632C72.6119 22.5089 80.1306 22.865 80.1306 22.865L77.8545 29.443Z" fill="black"/>
<path d="M80.2052 14.7315C81.2974 14.7315 82.1828 13.8421 82.1828 12.745C82.1828 11.6478 81.2974 10.7584 80.2052 10.7584C79.113 10.7584 78.2276 11.6478 78.2276 12.745C78.2276 13.8421 79.113 14.7315 80.2052 14.7315Z" fill="white"/>
<path d="M86.306 14.7315C87.3982 14.7315 88.2836 13.8421 88.2836 12.745C88.2836 11.6478 87.3982 10.7584 86.306 10.7584C85.2138 10.7584 84.3284 11.6478 84.3284 12.745C84.3284 13.8421 85.2138 14.7315 86.306 14.7315Z" fill="white"/>
<path d="M92.6306 14.7315C93.7228 14.7315 94.6082 13.8421 94.6082 12.745C94.6082 11.6478 93.7228 10.7584 92.6306 10.7584C91.5384 10.7584 90.653 11.6478 90.653 12.745C90.653 13.8421 91.5384 14.7315 92.6306 14.7315Z" fill="white"/>
<path d="M20.0933 50.2079H27.7239" stroke="black" stroke-width="1.5" stroke-miterlimit="10"/>
<path d="M42.6866 50.2079H48.2836" stroke="black" stroke-width="1.5" stroke-miterlimit="10"/>
</g>
<defs>
<clipPath id="clip0_501_184">
<rect width="100" height="64" fill="white" transform="translate(0 0.00115967)"/>
</clipPath>
</defs>
</svg>
